<svg width="69" height="69" fill="none" xmlns="http://www.w3.org/2000/svg"><path fill-rule="evenodd" clip-rule="evenodd" d="M34.5 69C53.554 69 69 53.554 69 34.5 69 15.446 53.554 0 34.5 0 15.446 0 0 15.446 0 34.5 0 53.554 15.446 69 34.5 69z" fill="#F04037" fill-opacity=".097"/><path d="M32.412 37h-8.824a.602.602 0 01-.588-.615v-14.77c0-.34.264-.615.588-.615h8.824c.325 0 .588.276.588.615v14.77c0 .34-.264.615-.588.615zM32.412 49h-8.824c-.325 0-.588-.288-.588-.643v-7.714c0-.355.264-.643.588-.643h8.824c.325 0 .588.288.588.643v7.714c0 .355-.264.643-.588.643zM46.412 30h-8.824c-.325 0-.588-.288-.588-.643v-7.714c0-.355.264-.643.588-.643h8.824c.325 0 .588.288.588.643v7.714c0 .355-.264.643-.588.643zM46.412 49h-8.824a.602.602 0 01-.588-.615v-14.77c0-.34.264-.615.588-.615h8.824c.325 0 .588.276.588.615v14.77c0 .34-.264.615-.588.615z" fill="#F04037"/></svg>