<svg width="69" height="69" fill="none" xmlns="http://www.w3.org/2000/svg"><path fill-rule="evenodd" clip-rule="evenodd" d="M34.5 69C53.554 69 69 53.554 69 34.5 69 15.446 53.554 0 34.5 0 15.446 0 0 15.446 0 34.5 0 53.554 15.446 69 34.5 69z" fill="#FEDC5A" fill-opacity=".1"/><path d="M36 49H20.16c-1.193 0-2.16-.99-2.16-2.21V23.21c0-1.22.967-2.21 2.16-2.21H36v1.474H20.16c-.398 0-.72.33-.72.736v23.58c0 .406.322.736.72.736H36V49z" fill="#FEDC5A"/><path fill-rule="evenodd" clip-rule="evenodd" d="M38 21h11.79c1.22 0 2.21.99 2.21 2.21v23.58c0 1.22-.99 2.21-2.21 2.21H38V21zm4.421 20.632h5.158a.737.737 0 100-1.474H42.42a.737.737 0 100 1.474zm5.158-5.895H42.42a.737.737 0 110-1.474h5.158a.737.737 0 110 1.474zm-5.158-5.895h5.158a.737.737 0 100-1.474H42.42a.737.737 0 100 1.474z" fill="#FEDC5A"/></svg>