<svg width="69" height="69" fill="none" xmlns="http://www.w3.org/2000/svg"><path fill-rule="evenodd" clip-rule="evenodd" d="M34.5 69C53.554 69 69 53.554 69 34.5 69 15.446 53.554 0 34.5 0 15.446 0 0 15.446 0 34.5 0 53.554 15.446 69 34.5 69z" fill="#413E65" fill-opacity=".1"/><path fill-rule="evenodd" clip-rule="evenodd" d="M46.74 21H23.26c-1.8 0-3.26 1.492-3.26 3.333V39c0 .884.344 1.732.955 2.357.612.625 1.441.976 2.306.976h6.209l5.021 6.417a.647.647 0 001.019 0l5.02-6.417h6.21c1.8 0 3.26-1.492 3.26-3.333V24.333C50 22.493 48.54 21 46.74 21zM36.374 35h-8.75c-.345 0-.625-.224-.625-.5s.28-.5.625-.5h8.75c.345 0 .625.224.625.5s-.28.5-.625.5zm-8.721-6h15.692c.361 0 .654-.224.654-.5s-.293-.5-.654-.5H27.654c-.361 0-.654.224-.654.5s.293.5.654.5z" fill="#413E65"/></svg>