<svg width="69" height="69" fill="none" xmlns="http://www.w3.org/2000/svg"><path fill-rule="evenodd" clip-rule="evenodd" d="M34.5 69C53.554 69 69 53.554 69 34.5 69 15.446 53.554 0 34.5 0 15.446 0 0 15.446 0 34.5 0 53.554 15.446 69 34.5 69z" fill="#5454D4" fill-opacity=".1"/><path d="M43.667 20H26.333c-1.84.002-3.33 1.46-3.333 3.26v26.088c0 .234.128.45.336.566a.68.68 0 00.669-.004L35 43.583l10.995 6.326a.68.68 0 00.669.004.65.65 0 00.336-.565V23.26c-.002-1.8-1.493-3.259-3.333-3.261z" fill="#5454D4"/></svg>