<svg width="27" height="22" fill="none" xmlns="http://www.w3.org/2000/svg"><path d="M27 2.552c-1.012.453-2.081.737-3.206.907 1.125-.68 2.025-1.758 2.418-3.062a12.133 12.133 0 01-3.543 1.36A5.586 5.586 0 0018.619 0c-3.038 0-5.513 2.495-5.513 5.557 0 .453.056.85.169 1.247C8.719 6.577 4.612 4.366 1.856.964c-.45.85-.731 1.758-.731 2.778 0 1.928.956 3.63 2.475 4.65a6.468 6.468 0 01-2.531-.68v.056c0 2.722 1.912 4.99 4.444 5.5-.45.113-.957.17-1.463.17a6.84 6.84 0 01-1.069-.113c.732 2.211 2.756 3.855 5.175 3.855-1.912 1.475-4.275 2.382-6.862 2.382-.45 0-.9 0-1.294-.057A15.562 15.562 0 008.494 22c10.181 0 15.75-8.505 15.75-15.876v-.737A10.145 10.145 0 0027 2.552z" fill="#fff"/></svg>