<svg width="78" height="23" fill="none" xmlns="http://www.w3.org/2000/svg"><path d="M4.8 9.48c0-3.552 2.544-5.16 4.92-5.16 2.352 0 4.896 1.608 4.896 5.16s-2.544 5.136-4.896 5.136c-2.376 0-4.92-1.584-4.92-5.136zm-3.936.024c0 5.376 4.056 8.856 8.856 8.856 4.776 0 8.832-3.48 8.832-8.856 0-5.4-4.056-8.88-8.832-8.88-4.8 0-8.856 3.48-8.856 8.88zM23.912 18v-6.864c0-1.08.696-2.064 1.968-2.064 1.32 0 1.92.888 1.92 2.016V18h3.6v-6.888c0-1.056.696-2.04 1.992-2.04s1.896.888 1.896 2.016V18h3.528v-7.728c0-3.24-2.16-4.56-4.416-4.56-1.608 0-2.76.528-3.696 1.872-.6-1.176-1.824-1.872-3.528-1.872-1.296 0-2.832.672-3.432 1.728V6.072h-3.48V18h3.648zm19.994-7.392c.072-.888.84-2.016 2.376-2.016 1.728 0 2.352 1.104 2.4 2.016h-4.776zm5.04 3.096c-.336.936-1.08 1.56-2.4 1.56-1.416 0-2.64-.96-2.712-2.304h8.304c.024-.072.072-.624.072-1.128 0-3.84-2.28-6.12-5.976-6.12-3.096 0-5.952 2.448-5.952 6.288 0 4.008 2.928 6.36 6.216 6.36 3.024 0 4.92-1.728 5.496-3.792l-3.048-.864zm4.016 4.968c.336 2.136 2.52 4.248 5.952 4.248 4.464 0 6.384-2.976 6.384-6.408V6.072h-3.48v1.272c-.336-.624-1.368-1.488-3.312-1.488-3.264 0-5.544 2.688-5.544 5.832 0 3.312 2.376 5.808 5.544 5.808 1.728 0 2.76-.696 3.192-1.344v.552c0 2.16-1.128 3.048-2.952 3.048-1.368 0-2.328-.84-2.568-1.992l-3.216.912zm6.216-4.344c-1.464 0-2.568-1.008-2.568-2.64 0-1.632 1.2-2.64 2.568-2.64s2.544 1.008 2.544 2.64c0 1.632-1.056 2.64-2.544 2.64zm7.615.384c0 1.896 1.512 3.624 4.128 3.624 1.584 0 2.736-.672 3.36-1.68 0 .816.096 1.248.12 1.344h3.288c-.024-.12-.144-.912-.144-1.848V10.32c0-2.448-1.416-4.608-5.28-4.608-3.504 0-5.088 2.256-5.232 3.96l3.168.648c.072-.888.768-1.752 2.04-1.752 1.152 0 1.752.6 1.752 1.296 0 .408-.216.72-.864.816l-2.808.432c-1.968.288-3.528 1.488-3.528 3.6zm5.016.984c-1.008 0-1.416-.6-1.416-1.224 0-.84.576-1.2 1.344-1.32l2.256-.36v.528c0 1.848-1.104 2.376-2.184 2.376z" fill="#fff"/></svg>